<?xml version="1.0" encoding="UTF-8" standalone="no"?>
<!DOCTYPE svg PUBLIC "-//W3C//DTD SVG 1.1//EN" "http://www.w3.org/Graphics/SVG/1.1/DTD/svg11.dtd">
<svg width="100%" height="100%" viewBox="0 0 1500 1500" version="1.1" xmlns="http://www.w3.org/2000/svg" xmlns:xlink="http://www.w3.org/1999/xlink" xml:space="preserve" xmlns:serif="http://www.serif.com/" style="fill-rule:evenodd;clip-rule:evenodd;stroke-linejoin:round;stroke-miterlimit:2;">
    <g id="Flower_BluePink" transform="matrix(20.7676,0,0,20.7676,-752.642,-2943.78)">
        <g>
            <g transform="matrix(32.5655,0,0,32.5655,71.8316,171.633)">
                <path d="M-0.205,-0.112L-0.215,-0.167C-0.238,-0.309 -0.211,-0.455 -0.137,-0.579C-0.083,-0.668 -0.026,-0.764 0,-0.808C0.003,-0.813 0.009,-0.816 0.015,-0.816C0.021,-0.816 0.027,-0.813 0.03,-0.808C0.056,-0.764 0.113,-0.669 0.166,-0.58C0.241,-0.456 0.268,-0.309 0.244,-0.166L0.235,-0.112L0.285,-0.138C0.413,-0.204 0.56,-0.223 0.701,-0.191C0.802,-0.168 0.91,-0.143 0.961,-0.132C0.967,-0.13 0.971,-0.126 0.973,-0.12C0.975,-0.114 0.974,-0.108 0.97,-0.103C0.936,-0.065 0.863,0.019 0.795,0.097C0.7,0.206 0.569,0.277 0.426,0.298L0.371,0.306L0.411,0.346C0.514,0.447 0.578,0.582 0.591,0.725C0.6,0.828 0.61,0.939 0.614,0.99C0.615,0.997 0.612,1.003 0.607,1.006C0.602,1.01 0.596,1.01 0.59,1.008C0.543,0.988 0.441,0.944 0.346,0.904C0.213,0.847 0.104,0.744 0.04,0.615L0.015,0.566L-0.01,0.616C-0.074,0.745 -0.182,0.847 -0.315,0.904C-0.41,0.944 -0.513,0.988 -0.56,1.008C-0.566,1.01 -0.572,1.01 -0.577,1.006C-0.582,1.003 -0.585,0.997 -0.584,0.99C-0.58,0.939 -0.57,0.829 -0.56,0.726C-0.548,0.582 -0.484,0.447 -0.38,0.346L-0.341,0.307L-0.396,0.299C-0.539,0.277 -0.67,0.206 -0.764,0.097C-0.833,0.019 -0.906,-0.065 -0.94,-0.103C-0.944,-0.108 -0.945,-0.114 -0.943,-0.12C-0.941,-0.126 -0.936,-0.13 -0.93,-0.132C-0.88,-0.143 -0.772,-0.168 -0.672,-0.191C-0.53,-0.223 -0.382,-0.204 -0.254,-0.137L-0.205,-0.112Z" style="fill:url(#_Radial1);"/>
            </g>
            <path d="M72.322,184.907C71.849,184.907 71.465,185.291 71.465,185.764C71.465,186.238 71.849,186.622 72.322,186.622C72.795,186.622 73.18,186.238 73.18,185.764C73.18,185.291 72.795,184.907 72.322,184.907ZM68.96,185.954C69.398,186.135 69.9,185.926 70.081,185.489C70.262,185.051 70.054,184.548 69.616,184.367C69.178,184.186 68.676,184.395 68.495,184.832C68.314,185.27 68.522,185.773 68.96,185.954ZM75.032,184.367C74.594,184.548 74.386,185.051 74.567,185.489C74.748,185.926 75.25,186.135 75.688,185.954C76.126,185.773 76.334,185.27 76.153,184.832C75.972,184.395 75.47,184.186 75.032,184.367ZM77.326,182.833C76.991,183.169 76.992,183.713 77.327,184.048C77.662,184.383 78.207,184.383 78.541,184.047C78.876,183.712 78.876,183.168 78.541,182.833C78.205,182.498 77.661,182.498 77.326,182.833ZM66.107,184.047C66.442,184.382 66.986,184.382 67.32,184.047C67.655,183.712 67.655,183.169 67.32,182.834C66.986,182.499 66.442,182.499 66.107,182.834C65.773,183.169 65.773,183.712 66.107,184.047ZM72.322,181.29C71.849,181.29 71.465,181.675 71.465,182.148C71.465,182.621 71.849,183.006 72.322,183.006C72.795,183.006 73.18,182.621 73.18,182.148C73.18,181.675 72.795,181.29 72.322,181.29ZM74.767,180.283C74.432,180.618 74.431,181.162 74.766,181.497C75.101,181.833 75.645,181.833 75.98,181.498C76.316,181.164 76.316,180.62 75.981,180.284C75.646,179.949 75.102,179.948 74.767,180.283ZM68.672,181.487C69.007,181.822 69.551,181.823 69.886,181.488C70.221,181.153 70.221,180.609 69.886,180.274C69.552,179.939 69.008,179.939 68.673,180.273C68.338,180.608 68.337,181.152 68.672,181.487ZM78.86,180.538C78.679,180.976 78.887,181.478 79.325,181.66C79.763,181.841 80.265,181.633 80.446,181.195C80.627,180.758 80.419,180.255 79.981,180.074C79.544,179.893 79.041,180.101 78.86,180.538ZM64.202,181.195C64.383,181.632 64.885,181.84 65.322,181.659C65.76,181.478 65.968,180.976 65.786,180.539C65.605,180.101 65.103,179.893 64.666,180.075C64.229,180.256 64.021,180.758 64.202,181.195ZM72.322,176.988C71.849,176.988 71.465,177.372 71.465,177.845C71.465,178.319 71.849,178.703 72.322,178.703C72.795,178.703 73.18,178.319 73.18,177.845C73.18,177.372 72.795,176.988 72.322,176.988ZM63.533,177.831C63.533,178.304 63.917,178.688 64.39,178.688C64.863,178.688 65.248,178.304 65.248,177.831C65.248,177.357 64.863,176.973 64.39,176.973C63.917,176.973 63.533,177.357 63.533,177.831ZM67.164,177.831C67.164,178.304 67.548,178.688 68.021,178.688C68.494,178.688 68.878,178.304 68.878,177.831C68.878,177.357 68.494,176.973 68.021,176.973C67.548,176.973 67.164,177.357 67.164,177.831ZM75.784,177.831C75.784,178.304 76.168,178.688 76.641,178.688C77.114,178.688 77.499,178.304 77.499,177.831C77.499,177.357 77.114,176.973 76.641,176.973C76.168,176.973 75.784,177.357 75.784,177.831ZM79.399,177.831C79.399,178.304 79.784,178.688 80.257,178.688C80.73,178.688 81.115,178.304 81.115,177.831C81.115,177.357 80.73,176.973 80.257,176.973C79.784,176.973 79.399,177.357 79.399,177.831ZM68.672,174.189C68.337,174.524 68.338,175.068 68.673,175.403C69.008,175.738 69.552,175.737 69.886,175.402C70.221,175.067 70.221,174.523 69.886,174.188C69.551,173.854 69.007,173.854 68.672,174.189ZM78.86,175.123C79.041,175.561 79.544,175.769 79.981,175.587C80.419,175.406 80.627,174.904 80.446,174.466C80.265,174.029 79.763,173.821 79.325,174.002C78.887,174.183 78.679,174.685 78.86,175.123ZM64.202,174.466C64.021,174.904 64.229,175.406 64.666,175.587C65.103,175.768 65.605,175.56 65.786,175.123C65.968,174.685 65.76,174.183 65.322,174.002C64.885,173.821 64.383,174.029 64.202,174.466ZM74.767,175.393C75.102,175.728 75.646,175.727 75.981,175.392C76.316,175.057 76.316,174.512 75.98,174.178C75.645,173.843 75.101,173.843 74.766,174.179C74.431,174.514 74.432,175.058 74.767,175.393ZM72.322,172.671C71.849,172.671 71.465,173.055 71.465,173.528C71.465,174.002 71.849,174.386 72.322,174.386C72.795,174.386 73.18,174.002 73.18,173.528C73.18,173.055 72.795,172.671 72.322,172.671ZM77.326,172.828C77.661,173.163 78.205,173.163 78.541,172.828C78.876,172.493 78.876,171.949 78.541,171.614C78.207,171.279 77.662,171.279 77.327,171.614C76.992,171.949 76.991,172.493 77.326,172.828ZM66.107,171.614C65.773,171.949 65.773,172.493 66.107,172.827C66.442,173.162 66.986,173.162 67.32,172.827C67.655,172.493 67.655,171.949 67.32,171.614C66.986,171.28 66.442,171.28 66.107,171.614ZM75.032,171.294C75.47,171.475 75.972,171.267 76.153,170.829C76.334,170.391 76.126,169.889 75.688,169.708C75.25,169.527 74.748,169.735 74.567,170.173C74.386,170.611 74.594,171.113 75.032,171.294ZM68.96,169.708C68.522,169.889 68.314,170.391 68.495,170.829C68.676,171.267 69.178,171.475 69.616,171.294C70.054,171.113 70.262,170.611 70.081,170.173C69.9,169.735 69.398,169.527 68.96,169.708ZM72.322,169.039C71.849,169.039 71.465,169.424 71.465,169.897C71.465,170.37 71.849,170.755 72.322,170.755C72.795,170.755 73.18,170.37 73.18,169.897C73.18,169.424 72.795,169.039 72.322,169.039Z" style="fill:white;"/>
        </g>
    </g>
    <defs>
        <radialGradient id="_Radial1" cx="0" cy="0" r="1" gradientUnits="userSpaceOnUse" gradientTransform="matrix(1,0,0,-1,0,0.194155)"><stop offset="0" style="stop-color:rgb(255,140,160);stop-opacity:1"/><stop offset="0.43" style="stop-color:rgb(196,150,180);stop-opacity:1"/><stop offset="1" style="stop-color:rgb(65,173,226);stop-opacity:1"/></radialGradient>
    </defs>
</svg>
